<svg width="40" height="40" viewBox="0 0 40 40" fill="none" xmlns="http://www.w3.org/2000/svg">
<path d="M9.99996 13.3333C9.0833 13.3333 8.2983 13.0066 7.64496 12.3533C6.99163 11.7 6.66552 10.9155 6.66663 9.99996C6.66663 9.0833 6.9933 8.2983 7.64663 7.64496C8.29996 6.99163 9.08441 6.66552 9.99996 6.66663C10.9166 6.66663 11.7016 6.9933 12.355 7.64663C13.0083 8.29996 13.3344 9.08441 13.3333 9.99996C13.3333 10.9166 13.0066 11.7016 12.3533 12.355C11.7 13.0083 10.9155 13.3344 9.99996 13.3333ZM21.5833 36.6666C21.1389 36.6666 20.7566 36.5139 20.4366 36.2083C20.1166 35.9027 19.9433 35.5277 19.9166 35.0833L19.1666 20L13.3333 18.3333H3.3333C2.86108 18.3333 2.46496 18.1733 2.14496 17.8533C1.82496 17.5333 1.66552 17.1377 1.66663 16.6666C1.66663 16.1944 1.82663 15.7983 2.14663 15.4783C2.46663 15.1583 2.86219 14.9989 3.3333 15H11.6666L22.0833 7.54163C22.4444 7.29163 22.8333 7.19441 23.25 7.24996C23.6666 7.30552 24.0277 7.49996 24.3333 7.8333C24.6389 8.22218 24.7639 8.64552 24.7083 9.1033C24.6527 9.56107 24.4305 9.9433 24.0416 10.25L18.5833 14.1666H23.3333L35.25 7.29163C35.5555 7.09718 35.8961 7.04163 36.2716 7.12496C36.6472 7.2083 36.9872 7.43052 37.2916 7.79163C37.5972 8.12496 37.7222 8.50718 37.6666 8.9383C37.6111 9.36941 37.4027 9.7233 37.0416 9.99996L24.1666 20L23.4166 35.0833C23.3889 35.5277 23.2083 35.9027 22.875 36.2083C22.5416 36.5139 22.1111 36.6666 21.5833 36.6666Z" fill="#FF0336"/>
</svg>
