<svg width="165" height="53" viewBox="0 0 536 121" fill="none" xmlns="http://www.w3.org/2000/svg">
<path d="M27.947 98V68.104L32.593 80.123L0.98 27.3H22.089L44.915 65.579H32.694L55.621 27.3H75.013L43.501 80.123L47.945 68.104V98H27.947ZM100.646 98.909C94.653 98.909 89.3337 97.697 84.6877 95.273C80.0417 92.849 76.372 89.516 73.6787 85.274C71.0527 80.9647 69.7397 76.0493 69.7397 70.528C69.7397 65.0067 71.0527 60.125 73.6787 55.883C76.372 51.641 80.0417 48.3417 84.6877 45.985C89.3337 43.561 94.653 42.349 100.646 42.349C106.638 42.349 111.958 43.561 116.604 45.985C121.317 48.3417 124.987 51.641 127.613 55.883C130.239 60.125 131.552 65.0067 131.552 70.528C131.552 76.0493 130.239 80.9647 127.613 85.274C124.987 89.516 121.317 92.849 116.604 95.273C111.958 97.697 106.638 98.909 100.646 98.909ZM100.646 83.658C102.868 83.658 104.82 83.153 106.504 82.143C108.254 81.133 109.635 79.6517 110.645 77.699C111.655 75.679 112.16 73.2887 112.16 70.528C112.16 67.7673 111.655 65.4443 110.645 63.559C109.635 61.6063 108.254 60.125 106.504 59.115C104.82 58.105 102.868 57.6 100.646 57.6C98.491 57.6 96.5384 58.105 94.7877 59.115C93.1044 60.125 91.724 61.6063 90.6467 63.559C89.6367 65.4443 89.1317 67.7673 89.1317 70.528C89.1317 73.2887 89.6367 75.679 90.6467 77.699C91.724 79.6517 93.1044 81.133 94.7877 82.143C96.5384 83.153 98.491 83.658 100.646 83.658ZM167.206 118.503C161.954 118.503 156.938 117.897 152.157 116.685C147.444 115.473 143.404 113.689 140.037 111.332L147.006 97.899C149.296 99.717 152.124 101.131 155.49 102.141C158.924 103.218 162.257 103.757 165.489 103.757C170.674 103.757 174.411 102.612 176.7 100.323C178.99 98.101 180.134 94.8353 180.134 90.526V84.062L181.144 68.71L181.043 53.257V43.258H199.324V88.001C199.324 98.3703 196.53 106.046 190.941 111.029C185.353 116.012 177.441 118.503 167.206 118.503ZM163.873 95.172C159.025 95.172 154.548 94.0947 150.44 91.94C146.4 89.718 143.135 86.6543 140.643 82.749C138.219 78.7763 137.007 74.0967 137.007 68.71C137.007 63.3233 138.219 58.6773 140.643 54.772C143.135 50.7993 146.4 47.7357 150.44 45.581C154.548 43.4263 159.025 42.349 163.873 42.349C168.519 42.349 172.492 43.2917 175.791 45.177C179.091 46.995 181.582 49.8567 183.265 53.762C185.016 57.6673 185.891 62.65 185.891 68.71C185.891 74.77 185.016 79.7527 183.265 83.658C181.582 87.5633 179.091 90.4587 175.791 92.344C172.492 94.2293 168.519 95.172 163.873 95.172ZM168.418 79.921C170.708 79.921 172.728 79.4497 174.478 78.507C176.296 77.5643 177.71 76.2513 178.72 74.568C179.798 72.8847 180.336 70.932 180.336 68.71C180.336 66.488 179.798 64.5353 178.72 62.852C177.71 61.1687 176.296 59.8893 174.478 59.014C172.728 58.0713 170.708 57.6 168.418 57.6C166.129 57.6 164.075 58.0713 162.257 59.014C160.439 59.8893 158.992 61.1687 157.914 62.852C156.904 64.5353 156.399 66.488 156.399 68.71C156.399 70.932 156.904 72.8847 157.914 74.568C158.992 76.2513 160.439 77.5643 162.257 78.507C164.075 79.4497 166.129 79.921 168.418 79.921ZM245.085 98V87.799L243.772 85.274V66.488C243.772 63.458 242.829 61.135 240.944 59.519C239.126 57.8357 236.197 56.994 232.157 56.994C229.531 56.994 226.871 57.4317 224.178 58.307C221.485 59.115 219.195 60.2597 217.31 61.741L210.846 48.712C213.943 46.692 217.647 45.1433 221.956 44.066C226.333 42.9213 230.676 42.349 234.985 42.349C243.873 42.349 250.741 44.4027 255.589 48.51C260.504 52.55 262.962 58.913 262.962 67.599V98H245.085ZM228.925 98.909C224.548 98.909 220.845 98.1683 217.815 96.687C214.785 95.2057 212.462 93.1857 210.846 90.627C209.297 88.0683 208.523 85.2067 208.523 82.042C208.523 78.6753 209.365 75.78 211.048 73.356C212.799 70.8647 215.458 68.9793 219.027 67.7C222.596 66.3533 227.208 65.68 232.864 65.68H245.792V75.679H235.49C232.393 75.679 230.204 76.184 228.925 77.194C227.713 78.204 227.107 79.5507 227.107 81.234C227.107 82.9173 227.747 84.264 229.026 85.274C230.305 86.284 232.056 86.789 234.278 86.789C236.365 86.789 238.251 86.284 239.934 85.274C241.685 84.1967 242.964 82.5807 243.772 80.426L246.398 87.496C245.388 91.2667 243.402 94.1283 240.439 96.081C237.544 97.9663 233.706 98.909 228.925 98.909ZM287.118 98L267.625 43.258H285.805L301.258 89.011H292.572L308.631 43.258H324.993L340.446 89.011H331.962L347.92 43.258H364.787L345.294 98H326.71L313.58 60.125H319.236L305.702 98H287.118ZM419.94 98.909C415.294 98.909 410.749 98.3703 406.305 97.293C401.928 96.2157 398.393 94.869 395.7 93.253L401.457 80.123C404.016 81.6717 407.012 82.9173 410.446 83.86C413.88 84.7353 417.247 85.173 420.546 85.173C423.778 85.173 426 84.8363 427.212 84.163C428.491 83.4897 429.131 82.5807 429.131 81.436C429.131 80.3587 428.525 79.5843 427.313 79.113C426.168 78.5743 424.62 78.1703 422.667 77.901C420.782 77.6317 418.694 77.3287 416.405 76.992C414.116 76.6553 411.793 76.2177 409.436 75.679C407.147 75.073 405.026 74.1977 403.073 73.053C401.188 71.841 399.673 70.225 398.528 68.205C397.383 66.185 396.811 63.6263 396.811 60.529C396.811 57.0277 397.821 53.9303 399.841 51.237C401.928 48.4763 404.958 46.3217 408.931 44.773C412.904 43.157 417.752 42.349 423.475 42.349C427.313 42.349 431.185 42.753 435.09 43.561C439.063 44.3017 442.396 45.4463 445.089 46.995L439.332 60.024C436.639 58.4753 433.945 57.4317 431.252 56.893C428.559 56.287 426 55.984 423.576 55.984C420.344 55.984 418.055 56.3543 416.708 57.095C415.429 57.8357 414.789 58.7447 414.789 59.822C414.789 60.8993 415.361 61.741 416.506 62.347C417.651 62.8857 419.166 63.3233 421.051 63.66C423.004 63.9293 425.125 64.2323 427.414 64.569C429.703 64.8383 431.993 65.276 434.282 65.882C436.639 66.488 438.76 67.397 440.645 68.609C442.598 69.7537 444.146 71.336 445.291 73.356C446.436 75.3087 447.008 77.8337 447.008 80.931C447.008 84.2977 445.964 87.3277 443.877 90.021C441.857 92.7143 438.827 94.869 434.787 96.485C430.814 98.101 425.865 98.909 419.94 98.909ZM483.961 98.909C477.497 98.909 471.841 97.697 466.993 95.273C462.213 92.7817 458.476 89.415 455.782 85.173C453.156 80.8637 451.843 75.982 451.843 70.528C451.843 65.074 453.123 60.226 455.681 55.984C458.307 51.6747 461.91 48.3417 466.488 45.985C471.067 43.561 476.218 42.349 481.941 42.349C487.328 42.349 492.243 43.46 496.687 45.682C501.131 47.8367 504.666 51.035 507.292 55.277C509.918 59.519 511.231 64.67 511.231 70.73C511.231 71.4033 511.198 72.1777 511.13 73.053C511.063 73.9283 510.996 74.7363 510.928 75.477H467.599V65.377H500.727L493.455 68.205C493.523 65.7137 493.051 63.559 492.041 61.741C491.099 59.923 489.752 58.509 488.001 57.499C486.318 56.489 484.332 55.984 482.042 55.984C479.753 55.984 477.733 56.489 475.982 57.499C474.299 58.509 472.986 59.9567 472.043 61.842C471.101 63.66 470.629 65.8147 470.629 68.306V71.235C470.629 73.9283 471.168 76.2513 472.245 78.204C473.39 80.1567 475.006 81.6717 477.093 82.749C479.181 83.759 481.672 84.264 484.567 84.264C487.261 84.264 489.55 83.8937 491.435 83.153C493.388 82.345 495.307 81.133 497.192 79.517L507.292 90.021C504.666 92.9163 501.434 95.1383 497.596 96.687C493.758 98.1683 489.213 98.909 483.961 98.909Z" fill="#181C20"/>
<path d="M345.705 21.6667C342.85 21.6667 340.405 20.605 338.37 18.4817C336.335 16.3583 335.319 13.8089 335.323 10.8333C335.323 7.85418 336.34 5.30292 338.375 3.17959C340.41 1.05626 342.853 -0.00360191 345.705 9.19638e-06C348.56 9.19638e-06 351.005 1.06167 353.04 3.18501C355.075 5.30834 356.09 7.85779 356.087 10.8333C356.087 13.8125 355.069 16.3638 353.035 18.4871C351 20.6104 348.556 21.6703 345.705 21.6667ZM381.782 97.5C380.398 97.5 379.207 97.0035 378.211 96.0104C377.214 95.0174 376.674 93.7986 376.591 92.3542L374.255 43.3333L356.087 37.9167H324.941C323.47 37.9167 322.236 37.3967 321.24 36.3567C320.243 35.3167 319.747 34.0311 319.75 32.5C319.75 30.9653 320.248 29.6779 321.245 28.6379C322.242 27.5979 323.474 27.0797 324.941 27.0833H350.896L383.339 2.84376C384.464 2.03126 385.675 1.71529 386.973 1.89584C388.271 2.0764 389.396 2.70834 390.347 3.79167C391.299 5.05556 391.688 6.4314 391.515 7.91917C391.342 9.40695 390.65 10.6492 389.439 11.6458L372.438 24.375H387.233L424.348 2.03126C425.3 1.39931 426.36 1.21876 427.53 1.48959C428.7 1.76043 429.759 2.48265 430.707 3.65626C431.659 4.73959 432.048 5.98181 431.875 7.38293C431.702 8.78404 431.053 9.93418 429.928 10.8333L389.828 43.3333L387.492 92.3542C387.406 93.7986 386.843 95.0174 385.805 96.0104C384.767 97.0035 383.426 97.5 381.782 97.5Z" fill="#FF0336"/>
</svg>
