<svg width="165" height="53" viewBox="0 0 492 121" fill="none" xmlns="http://www.w3.org/2000/svg">
<path d="M1.72159 24.5455H23.9588L38.3054 54.3864H38.8793L53.2259 24.5455H75.4631L48.4915 74.902V98H28.6932V74.902L1.72159 24.5455ZM94.7861 99.0043C88.8084 99.0043 83.6914 97.8207 79.4353 95.4535C75.1791 93.0624 71.9153 89.7388 69.6437 85.4826C67.3722 81.2025 66.2364 76.241 66.2364 70.598C66.2364 64.955 67.3722 60.0054 69.6437 55.7493C71.9153 51.4692 75.1791 48.1456 79.4353 45.7784C83.6914 43.3873 88.8084 42.1918 94.7861 42.1918C100.764 42.1918 105.881 43.3873 110.137 45.7784C114.393 48.1456 117.657 51.4692 119.929 55.7493C122.2 60.0054 123.336 64.955 123.336 70.598C123.336 76.241 122.2 81.2025 119.929 85.4826C117.657 89.7388 114.393 93.0624 110.137 95.4535C105.881 97.8207 100.764 99.0043 94.7861 99.0043ZM94.9296 84.3707C96.6034 84.3707 98.05 83.8088 99.2694 82.685C100.489 81.5612 101.433 79.9592 102.103 77.8789C102.772 75.7987 103.107 73.3239 103.107 70.4545C103.107 67.5613 102.772 65.0865 102.103 63.0302C101.433 60.9499 100.489 59.3479 99.2694 58.2241C98.05 57.1003 96.6034 56.5384 94.9296 56.5384C93.1602 56.5384 91.6418 57.1003 90.3746 58.2241C89.1073 59.3479 88.1389 60.9499 87.4694 63.0302C86.7999 65.0865 86.4651 67.5613 86.4651 70.4545C86.4651 73.3239 86.7999 75.7987 87.4694 77.8789C88.1389 79.9592 89.1073 81.5612 90.3746 82.685C91.6418 83.8088 93.1602 84.3707 94.9296 84.3707ZM157.911 119.807C152.388 119.807 147.653 119.018 143.708 117.44C139.787 115.885 136.738 113.733 134.562 110.984C132.41 108.258 131.203 105.125 130.94 101.587H150.021C150.212 102.758 150.69 103.703 151.455 104.42C152.22 105.137 153.201 105.652 154.396 105.962C155.616 106.297 156.979 106.464 158.485 106.464C161.043 106.464 163.16 105.843 164.833 104.599C166.531 103.356 167.38 101.108 167.38 97.8565V88.5312H166.806C166.089 90.3963 164.989 91.9864 163.506 93.3015C162.024 94.5927 160.242 95.585 158.162 96.2784C156.082 96.9479 153.798 97.2827 151.312 97.2827C147.39 97.2827 143.78 96.3741 140.48 94.5568C137.204 92.7396 134.574 89.8583 132.589 85.913C130.629 81.9677 129.648 76.8149 129.648 70.4545C129.648 63.8073 130.677 58.4034 132.733 54.2429C134.813 50.0824 137.491 47.0337 140.767 45.0969C144.067 43.1602 147.534 42.1918 151.168 42.1918C153.894 42.1918 156.285 42.67 158.342 43.6264C160.398 44.5589 162.119 45.8143 163.506 47.3924C164.893 48.9466 165.945 50.6562 166.663 52.5213H167.093V42.9091H186.891V97.8565C186.891 102.519 185.684 106.476 183.269 109.728C180.878 113.004 177.506 115.503 173.154 117.224C168.803 118.946 163.722 119.807 157.911 119.807ZM158.628 83.223C160.446 83.223 162 82.7209 163.291 81.7166C164.606 80.6884 165.61 79.2299 166.304 77.3409C167.021 75.428 167.38 73.1326 167.38 70.4545C167.38 67.7287 167.021 65.3974 166.304 63.4606C165.61 61.4999 164.606 60.0054 163.291 58.9773C162 57.9252 160.446 57.3991 158.628 57.3991C156.811 57.3991 155.257 57.9252 153.966 58.9773C152.699 60.0054 151.718 61.4999 151.025 63.4606C150.355 65.3974 150.021 67.7287 150.021 70.4545C150.021 73.1804 150.355 75.4998 151.025 77.4126C151.718 79.3016 152.699 80.7482 153.966 81.7525C155.257 82.7328 156.811 83.223 158.628 83.223ZM212.312 98.8608C208.797 98.8608 205.688 98.2869 202.986 97.1392C200.308 95.9676 198.204 94.1982 196.674 91.831C195.144 89.4638 194.378 86.451 194.378 82.7926C194.378 79.7798 194.892 77.2094 195.921 75.0813C196.949 72.9293 198.383 71.1719 200.225 69.8089C202.066 68.446 204.206 67.4059 206.645 66.6886C209.108 65.9712 211.762 65.505 214.607 65.2898C217.692 65.0507 220.166 64.7637 222.031 64.429C223.92 64.0703 225.283 63.5801 226.12 62.9585C226.957 62.3129 227.376 61.464 227.376 60.4119V60.2685C227.376 58.8338 226.826 57.7339 225.726 56.9688C224.626 56.2036 223.215 55.821 221.493 55.821C219.604 55.821 218.062 56.2395 216.867 57.0763C215.695 57.8893 214.99 59.1446 214.751 60.8423H196.53C196.769 57.4948 197.834 54.4103 199.722 51.5888C201.635 48.7434 204.421 46.4718 208.079 44.7741C211.738 43.0526 216.305 42.1918 221.78 42.1918C225.726 42.1918 229.265 42.658 232.397 43.5906C235.529 44.4992 238.195 45.7784 240.395 47.4283C242.595 49.0542 244.269 50.9671 245.416 53.1669C246.588 55.3428 247.174 57.71 247.174 60.2685V98H228.667V90.2528H228.236C227.136 92.3092 225.797 93.971 224.219 95.2383C222.665 96.5056 220.884 97.4261 218.875 98C216.891 98.5739 214.703 98.8608 212.312 98.8608ZM218.768 86.3793C220.274 86.3793 221.685 86.0684 223 85.4467C224.339 84.825 225.427 83.9284 226.264 82.7567C227.101 81.5851 227.519 80.1624 227.519 78.4886V73.8977C226.993 74.1129 226.431 74.3162 225.833 74.5075C225.259 74.6987 224.638 74.8781 223.968 75.0455C223.323 75.2128 222.629 75.3683 221.888 75.5117C221.171 75.6552 220.417 75.7867 219.628 75.9062C218.098 76.1454 216.843 76.5399 215.862 77.0898C214.906 77.6159 214.189 78.2734 213.71 79.0625C213.256 79.8277 213.029 80.6884 213.029 81.6449C213.029 83.1752 213.567 84.3468 214.643 85.1598C215.719 85.9728 217.094 86.3793 218.768 86.3793ZM266.389 98L252.617 42.9091H272.415L278.727 76.4801H279.158L286.188 42.9091H305.412L312.729 76.1932H313.159L319.185 42.9091H338.983L325.21 98H303.834L296.087 68.446H295.513L287.766 98H266.389ZM415.486 60.8423H397.266C397.17 59.7185 396.776 58.7501 396.082 57.9371C395.389 57.1242 394.492 56.5025 393.392 56.0721C392.316 55.6178 391.121 55.3906 389.806 55.3906C388.108 55.3906 386.65 55.7015 385.43 56.3232C384.211 56.9448 383.613 57.8295 383.637 58.9773C383.613 59.7902 383.96 60.5434 384.677 61.2369C385.418 61.9303 386.841 62.4683 388.945 62.8509L400.135 64.8594C405.778 65.8875 409.975 67.6211 412.725 70.06C415.498 72.475 416.897 75.715 416.921 79.7798C416.897 83.7012 415.725 87.1085 413.406 90.0018C411.111 92.8711 407.966 95.0948 403.973 96.6729C400.004 98.2272 395.473 99.0043 390.38 99.0043C381.963 99.0043 375.376 97.2827 370.617 93.8395C365.883 90.3963 363.241 85.8532 362.691 80.2102H382.346C382.609 81.9557 383.469 83.3067 384.928 84.2631C386.41 85.1957 388.276 85.6619 390.523 85.6619C392.34 85.6619 393.835 85.3511 395.006 84.7294C396.202 84.1077 396.812 83.223 396.836 82.0753C396.812 81.0232 396.286 80.1863 395.258 79.5646C394.253 78.9429 392.675 78.4408 390.523 78.0582L380.767 76.3366C375.148 75.3563 370.94 73.4912 368.142 70.7415C365.345 67.9917 363.958 64.4529 363.982 60.125C363.958 56.2992 364.962 53.0593 366.995 50.4052C369.051 47.7272 371.98 45.6947 375.782 44.3079C379.608 42.8971 384.139 42.1918 389.375 42.1918C397.338 42.1918 403.614 43.8416 408.205 47.1413C412.82 50.4411 415.247 55.008 415.486 60.8423ZM450.904 99.0043C445.022 99.0043 439.953 97.8804 435.697 95.6328C431.465 93.3613 428.201 90.1094 425.905 85.8771C423.634 81.621 422.498 76.5279 422.498 70.598C422.498 64.9072 423.646 59.9337 425.941 55.6776C428.237 51.4214 431.477 48.1097 435.661 45.7425C439.846 43.3754 444.783 42.1918 450.474 42.1918C454.635 42.1918 458.4 42.8374 461.772 44.1286C465.143 45.4197 468.025 47.2968 470.416 49.7596C472.807 52.1985 474.648 55.1635 475.939 58.6545C477.23 62.1455 477.876 66.0788 477.876 70.4545V75.0455H428.667V64.142H459.656C459.632 62.5639 459.225 61.1771 458.436 59.9815C457.671 58.7621 456.631 57.8176 455.316 57.1481C454.025 56.4547 452.554 56.108 450.904 56.108C449.302 56.108 447.832 56.4547 446.493 57.1481C445.154 57.8176 444.078 58.7501 443.265 59.9457C442.476 61.1412 442.057 62.54 442.01 64.142V75.9062C442.01 77.6757 442.38 79.2538 443.121 80.6406C443.863 82.0275 444.927 83.1154 446.313 83.9045C447.7 84.6935 449.374 85.0881 451.335 85.0881C452.698 85.0881 453.941 84.8968 455.065 84.5142C456.213 84.1316 457.193 83.5817 458.006 82.8643C458.819 82.1231 459.417 81.2384 459.799 80.2102H477.876C477.254 84.036 475.784 87.3596 473.464 90.1811C471.145 92.9787 468.072 95.1546 464.247 96.7088C460.445 98.2391 455.997 99.0043 450.904 99.0043Z" fill="white"/>
<path d="M320.958 21.6667C318.323 21.6667 316.066 20.605 314.188 18.4817C312.309 16.3583 311.372 13.8089 311.375 10.8333C311.375 7.85418 312.314 5.30292 314.193 3.17959C316.071 1.05626 318.326 -0.00360191 320.958 9.19638e-06C323.594 9.19638e-06 325.851 1.06167 327.729 3.18501C329.607 5.30834 330.545 7.85779 330.542 10.8333C330.542 13.8125 329.603 16.3638 327.724 18.4871C325.846 20.6104 323.591 21.6703 320.958 21.6667ZM354.26 97.5C352.983 97.5 351.884 97.0035 350.964 96.0104C350.044 95.0174 349.545 93.7986 349.469 92.3542L347.313 43.3333L330.542 37.9167H301.792C300.434 37.9167 299.295 37.3967 298.375 36.3567C297.455 35.3167 296.997 34.0311 297 32.5C297 30.9653 297.46 29.6779 298.38 28.6379C299.3 27.5979 300.437 27.0797 301.792 27.0833H325.75L355.698 2.84376C356.736 2.03126 357.854 1.71529 359.052 1.89584C360.25 2.0764 361.288 2.70834 362.167 3.79167C363.045 5.05556 363.405 6.4314 363.245 7.91917C363.085 9.40695 362.446 10.6492 361.328 11.6458L345.635 24.375H359.292L393.552 2.03126C394.431 1.39931 395.41 1.21876 396.489 1.48959C397.569 1.76043 398.547 2.48265 399.422 3.65626C400.3 4.73959 400.66 5.98181 400.5 7.38293C400.34 8.78404 399.741 9.93418 398.703 10.8333L361.688 43.3333L359.531 92.3542C359.451 93.7986 358.932 95.0174 357.974 96.0104C357.016 97.0035 355.778 97.5 354.26 97.5Z" fill="#FF0336"/>
</svg>
